HIERARCHY
ROOT Hips
{
	OFFSET 0.000000 0.000000 0.000000 
	CHANNELS 6 Xposition Yposition Zposition Zrotation Yrotation Xrotation
	JOINT LeftUpLeg
	{
		OFFSET 1.363060 -1.794630 0.839290 
		CHANNELS 3 Zrotation Yrotation Xrotation
		JOINT LeftLeg
		{
			OFFSET 2.448110 -6.726130 0.000000 
			CHANNELS 3 Zrotation Yrotation Xrotation
			JOINT LeftFoot
			{
				OFFSET 2.562200 -7.039590 0.000000 
				CHANNELS 3 Zrotation Yrotation Xrotation
				JOINT LeftToeBase
				{
					OFFSET 0.157640 -0.433110 2.322550 
					CHANNELS 3 Zrotation Yrotation Xrotation
					End Site
					{
						OFFSET 0.000000 0.000000 0.000000 
					}
				}
			}
		}
	}
	JOINT RightUpLeg
	{
		OFFSET -1.305520 -1.794630 0.839290 
		CHANNELS 3 Zrotation Yrotation Xrotation
		JOINT RightLeg
		{
			OFFSET -2.542530 -6.985550 0.000000 
			CHANNELS 3 Zrotation Yrotation Xrotation
			JOINT RightFoot
			{
				OFFSET -2.568260 -7.056230 0.000000 
				CHANNELS 3 Zrotation Yrotation Xrotation
				JOINT RightToeBase
				{
					OFFSET -0.164730 -0.452590 2.363150 
					CHANNELS 3 Zrotation Yrotation Xrotation
					End Site
					{
						OFFSET 0.000000 0.000000 0.000000 
					}
				}
			}
		}
	}
	JOINT Spine
	{
		OFFSET 0.028270 2.035590 -0.193380 
		CHANNELS 3 Zrotation Yrotation Xrotation
		JOINT Spine1
		{
			OFFSET 0.056720 2.048850 -0.042750 
			CHANNELS 3 Zrotation Yrotation Xrotation
			JOINT Neck1
			{
				OFFSET -0.054170 1.746240 0.172020 
				CHANNELS 3 Zrotation Yrotation Xrotation
				JOINT Head
				{
					OFFSET 0.104070 1.761360 -0.123970 
					CHANNELS 3 Zrotation Yrotation Xrotation
					End Site
					{
						OFFSET 0.000000 0.000000 0.000000 
					}
				}
			}
			JOINT LeftArm
			{
				OFFSET 3.362410 1.200890 -0.311210 
				CHANNELS 3 Zrotation Yrotation Xrotation
				JOINT LeftForeArm
				{
					OFFSET 4.983000 -0.000000 -0.000000 
					CHANNELS 3 Zrotation Yrotation Xrotation
					JOINT LeftHand
					{
						OFFSET 3.483560 -0.000000 -0.000000 
						CHANNELS 3 Zrotation Yrotation Xrotation
						JOINT LeftHandIndex1
						{
							OFFSET 0.715260 -0.000000 -0.000000 
							CHANNELS 3 Zrotation Yrotation Xrotation
							End Site
							{
								OFFSET 0.000000 0.000000 0.000000 
							}
						}
					}
				}
			}
			JOINT RightArm
			{
				OFFSET -3.136600 1.374050 -0.404650 
				CHANNELS 3 Zrotation Yrotation Xrotation
				JOINT RightForeArm
				{
					OFFSET -5.241900 -0.000000 -0.000000 
					CHANNELS 3 Zrotation Yrotation Xrotation
					JOINT RightHand
					{
						OFFSET -3.444170 -0.000000 -0.000000 
						CHANNELS 3 Zrotation Yrotation Xrotation
						JOINT RightHandIndex1
						{
							OFFSET -0.622530 -0.000000 -0.000000 
							CHANNELS 3 Zrotation Yrotation Xrotation
							End Site
							{
								OFFSET 0.000000 0.000000 0.000000 
							}
						}
					}
				}
			}
		}
	}
}
MOTION
Frames: 6
Frame Time: 0.041667
1.116237 17.499524 39.065551 174.233892 11.974987 -176.412904 -29.988940 -7.253116 -11.015692 1.304324 7.864288 25.978705 0.980530 -2.849675 -0.836176 0.008400 0.593500 1.630900 11.171086 9.809827 -36.738516 -5.008789 -14.338858 42.959875 1.327690 -7.584173 2.712293 -0.142700 -2.434900 6.709100 0.509150 -0.736944 -2.389612 4.787935 -0.363549 -2.815896 2.145435 10.001454 14.485100 0.605500 4.770200 9.337700 -79.348505 -7.616434 34.478585 17.327191 -31.743491 -6.387610 -0.871095 -1.962250 1.679633 -7.125000 0.000000 0.000000 83.727450 -4.926065 4.924764 -12.964771 23.019750 -3.591918 0.259864 0.210957 21.409708 7.125000 0.000000 0.000000 
1.157772 17.534136 38.971488 174.200141 11.374682 -176.211537 -29.894621 -7.512272 -10.142895 1.108717 7.486661 24.879195 0.938342 -2.702736 -0.583224 0.007200 0.549100 1.509000 10.849327 9.757699 -36.829624 -4.362725 -13.720665 40.441853 1.560852 -8.631471 3.257640 -0.250200 -3.218700 8.888200 0.547911 -0.920628 -2.422861 4.952202 -0.456422 -2.848064 2.198688 10.096737 14.417054 0.695600 4.796800 9.263900 -79.394426 -7.306769 34.696056 17.471689 -31.915822 -6.457027 -0.877215 -1.914054 1.556163 -7.125000 0.000000 0.000000 83.665718 -5.134770 5.034967 -13.083392 23.189483 -3.646473 0.270538 0.219839 21.159623 7.125000 0.000000 0.000000 
1.191671 17.559280 38.878850 174.098757 10.918531 -176.131477 -29.927069 -7.653098 -9.151510 0.919448 7.095727 23.766144 0.916479 -2.645503 -0.381961 0.005800 0.491600 1.350700 10.381321 9.861983 -36.787034 -3.767988 -13.091321 37.984302 1.824046 -9.816295 3.975455 -0.226500 -3.063100 8.454600 0.540200 -0.918115 -2.442315 4.953747 -0.456360 -2.933519 2.252595 10.078596 14.358358 0.751600 4.780500 9.224100 -79.403535 -7.059810 35.094277 17.647582 -32.109496 -6.539543 -0.861462 -1.888897 1.509123 -7.125000 0.000000 0.000000 83.625912 -5.269831 5.136765 -13.181094 23.334383 -3.693495 0.271782 0.197833 20.671823 7.125000 0.000000 0.000000 
1.230355 17.582084 38.781020 174.092544 10.609980 -176.006054 -29.827322 -7.508385 -8.287088 0.729617 6.692402 22.615454 0.907577 -2.639037 -0.166354 0.002100 0.298300 0.819600 9.895594 10.235108 -36.627026 -3.197883 -12.428158 35.532109 2.067496 -10.876290 4.486469 -0.250900 -3.223100 8.900400 0.539163 -0.801575 -2.443286 4.964065 -0.404785 -2.926340 2.273222 10.028626 14.364624 0.792400 4.742800 9.259100 -79.318994 -6.810305 35.662990 17.899910 -32.394979 -6.667000 -0.847155 -1.891490 1.640455 -7.125000 0.000000 0.000000 83.575443 -5.409990 5.282031 -13.372984 23.607904 -3.784967 0.273414 0.173627 20.289969 7.125000 0.000000 0.000000 
1.269548 17.597557 38.683801 173.846549 10.231552 -175.870424 -29.996365 -7.472167 -7.416622 0.542885 6.272320 21.434133 0.883139 -2.584656 0.129909 0.000200 0.088400 0.242800 9.066751 10.669431 -36.505745 -2.670667 -11.768267 33.143421 2.338386 -11.968515 4.612299 -0.256000 -3.255500 8.990800 0.501808 -0.698467 -2.413222 4.951789 -0.368783 -2.756683 2.306523 9.932379 14.195545 0.819300 4.683300 9.203900 -79.115472 -6.804965 36.385727 18.110222 -32.625092 -6.765189 -0.826111 -1.870361 1.573334 -7.125000 0.000000 0.000000 83.592206 -5.424750 5.515073 -13.615425 23.937470 -3.895815 0.288522 0.159758 19.769813 7.125000 0.000000 0.000000 
1.311082 17.614049 38.582001 173.596921 9.449506 -175.752900 -30.107140 -7.528329 -6.530818 0.382173 5.888687 20.378214 0.951534 -2.952434 0.456419 0.000000 0.043400 0.119100 8.224751 10.862117 -36.304334 -2.192243 -11.110149 30.837599 2.673369 -13.223748 4.462331 -0.219600 -3.016700 8.325400 0.488778 -0.836221 -2.408678 4.979213 -0.446869 -2.643388 2.284531 9.913549 14.048241 0.792300 4.675100 9.122700 -78.943357 -6.560196 37.039279 18.364003 -32.927575 -6.901832 -0.796741 -1.907010 1.664246 -7.125000 0.000000 0.000000 83.552027 -5.609896 5.757187 -13.771047 24.167749 -3.969696 0.305284 0.131906 19.467870 7.125000 0.000000 0.000000 
